<svg width="48" height="48" viewBox="0 0 48 48" fill="none" xmlns="http://www.w3.org/2000/svg">
<path d="M4 34.0416L4 26.0831L4.04875 25.3559C4.67608 15.997 11.3439 8.22393 20.3318 6.3738C22.753 5.8754 25.247 5.8754 27.6682 6.3738C36.6561 8.22393 43.3239 15.997 43.9513 25.3559L44 26.0831V34.0416M31.1792 35.6023C30.8407 33.8206 30.8407 31.9888 31.1792 30.2071C31.7232 27.3432 33.7961 25.0365 36.5396 24.2419L37.1215 24.0734C37.7264 23.8982 38.352 23.8094 38.9806 23.8094C41.7527 23.8094 44 26.1088 44 28.9453V36.8641C44 39.7006 41.7527 42 38.9806 42C38.352 42 37.7264 41.9111 37.1215 41.736L36.5396 41.5674C33.7961 40.7729 31.7232 38.4661 31.1792 35.6023ZM16.8208 35.6023C17.1593 33.8206 17.1593 31.9888 16.8208 30.2071C16.2767 27.3432 14.2038 25.0365 11.4604 24.2419L10.8785 24.0734C10.2736 23.8982 9.648 23.8094 9.01937 23.8094C6.24724 23.8094 4 26.1088 4.00001 28.9453L4.00001 36.8641C3.99999 39.7006 6.24724 42 9.01937 42C9.648 42 10.2736 41.9112 10.8785 41.736L11.4604 41.5674C14.2038 40.7729 16.2767 38.4661 16.8208 35.6023Z" stroke="white" stroke-width="1.5"/>
<path d="M44 36.8641C44 39.7006 41.7527 42 38.9806 42C38.352 42 37.7264 41.9112 37.1215 41.736L36.5396 41.5674C33.7961 40.7729 31.7232 38.4661 31.1792 35.6023C30.8407 33.8206 30.8407 31.9888 31.1792 30.2071C31.7232 27.3433 33.7961 25.0365 36.5396 24.242L37.1215 24.0734C37.7264 23.8982 38.352 23.8094 38.9806 23.8094C41.7527 23.8094 44 26.1088 44 28.9453V36.8641Z" stroke="#FF5800" stroke-width="1.5"/>
<path d="M4.00001 36.8641C3.99999 39.7006 6.24724 42 9.01937 42C9.648 42 10.2736 41.9112 10.8785 41.736L11.4604 41.5674C14.2038 40.7729 16.2767 38.4661 16.8208 35.6023C17.1593 33.8206 17.1593 31.9888 16.8208 30.2071C16.2767 27.3432 14.2038 25.0365 11.4604 24.242L10.8785 24.0734C10.2736 23.8982 9.648 23.8094 9.01937 23.8094C6.24724 23.8094 4 26.1088 4.00001 28.9453L4.00001 36.8641Z" stroke="#FF5800" stroke-width="1.5"/>
</svg>
