<svg width="32" height="32" viewBox="0 0 32 32" fill="none" xmlns="http://www.w3.org/2000/svg">
<path d="M27.4697 28.5302C27.7626 28.8231 28.2374 28.8231 28.5303 28.5302C28.8232 28.2373 28.8232 27.7624 28.5303 27.4696L27.4697 28.5302ZM22.5832 23.6437L27.4697 28.5302L28.5303 27.4696L23.6439 22.5831L22.5832 23.6437Z" fill="white"/>
<path d="M4.42097 11.0987C5.19818 7.78529 7.78529 5.19818 11.0987 4.42097C13.4915 3.85968 15.9819 3.85968 18.3747 4.42097C21.6881 5.19818 24.2752 7.78529 25.0524 11.0987C25.6137 13.4915 25.6137 15.9819 25.0524 18.3747C24.2752 21.6881 21.6881 24.2752 18.3747 25.0524C15.9819 25.6137 13.4915 25.6137 11.0987 25.0524C7.7853 24.2752 5.19818 21.6881 4.42097 18.3747C3.85968 15.9819 3.85968 13.4915 4.42097 11.0987Z" stroke="white" stroke-width="1.5" stroke-linecap="round"/>
<path d="M4.42097 11.0987C3.85968 13.4915 3.85968 15.9819 4.42097 18.3747C5.19818 21.6881 7.7853 24.2752 11.0987 25.0524C13.4915 25.6137 15.9819 25.6137 18.3747 25.0524C21.6881 24.2752 24.2752 21.6881 25.0524 18.3747C25.6137 15.9819 25.6137 13.4915 25.0524 11.0987C24.2752 7.78529 21.6881 5.19818 18.3747 4.42097C15.9819 3.85968 13.4915 3.85968 11.0987 4.42097" stroke="white" stroke-width="1.5" stroke-linecap="round"/>
</svg>
